<svg xmlns="http://www.w3.org/2000/svg" viewBox="0 0 512 512">
  <defs>
    <linearGradient id="grad1" x1="0%" y1="0%" x2="100%" y2="100%">
      <stop offset="0%" style="stop-color:#1E88E5;stop-opacity:1" />
      <stop offset="100%" style="stop-color:#0D47A1;stop-opacity:1" />
    </linearGradient>
  </defs>
  <rect width="512" height="512" rx="50" ry="50" fill="url(#grad1)" />
  <g fill="white">
    <!-- PDF Icon -->
    <path d="M128 128h96v32h-64v32h64v32h-64v64h-32V128z" />
    <path d="M256 128h64c17.7 0 32 14.3 32 32v96c0 17.7-14.3 32-32 32h-64V128zm32 32v96h32v-96h-32z" />
    <path d="M384 128h32v96h32v-96h32v160h-32v-32h-64V128z" />
    
    <!-- Arrow -->
    <path d="M256 320l-96 64v-32h-32v-64h32v-32l96 64z" />
    
    <!-- Word Icon -->
    <path d="M128 352h32l32 96h-32l-6.4-19.2h-38.4l-6.4 19.2h-32l32-96zm16 57.6l-12.8-38.4-12.8 38.4h25.6z" />
    <path d="M224 352h32v64h32v-64h32v96h-96v-96z" />
    <path d="M352 352h32v32h32v-32h32v96h-32v-32h-32v32h-32v-96z" />
  </g>
</svg>